<?xml version="1.0" encoding="UTF-8"?>
<svg version="1.1" xmlns="http://www.w3.org/2000/svg" width="2000" height="1000">
<path d="M0 0 C660 0 1320 0 2000 0 C2000 330 2000 660 2000 1000 C1340 1000 680 1000 0 1000 C0 670 0 340 0 0 Z " fill="#FEFEFE" transform="translate(0,0)"/>
<path d="M0 0 C38.94 0 77.88 0 118 0 C120.45848509 41.6778155 120.45848509 41.6778155 120.97851562 59.58398438 C121.33641368 71.80682978 121.75063611 84.00313482 122.60180664 96.20288086 C127.55280203 168.58475722 127.55280203 168.58475722 104.43115234 195.10400391 C91.64477902 209.37421566 76.92948349 221.81129082 61.70265728 233.38927692 C55.29489949 238.26411157 49.37574281 243.49088246 43.70141602 249.20092773 C43.23368271 249.67012131 42.7659494 250.13931488 42.28404236 250.62272644 C41.28666572 251.62385871 40.29044334 252.62614211 39.29532051 253.62951469 C37.72161186 255.21615348 36.14465405 256.7995005 34.56687927 258.38209534 C31.22923506 261.73106528 27.89559707 265.08400527 24.5625 268.4375 C20.67351796 272.35009119 16.78290684 276.26103436 12.88810539 280.16783333 C11.33217189 281.7302623 9.77926872 283.2956614 8.22645569 284.8611908 C7.28205758 285.80921769 6.3375209 286.75710656 5.39282227 287.70483398 C4.56645767 288.53643539 3.74009308 289.3680368 2.88868713 290.22483826 C1 292 1 292 0 292 C0 195.64 0 99.28 0 0 Z " fill="#002DFF" transform="translate(447,322)"/>
<path d="M0 0 C2.82510007 3.24055596 2.90100076 5.15287893 3.125 9.4375 C2.53586909 12.53072099 1.55076054 15.4427798 0.51953125 18.4140625 C0.09881599 19.68472061 0.09881599 19.68472061 -0.33039856 20.98104858 C-1.22719102 23.6797527 -2.14418222 26.37105379 -3.0625 29.0625 C-3.66090649 30.84718701 -4.25792462 32.63234017 -4.85351562 34.41796875 C-5.72593811 37.03216673 -6.59938104 39.64596935 -7.47824097 42.25801086 C-9.72823409 48.95017865 -11.84328275 55.67575124 -13.875 62.4375 C-15.19245544 66.7967132 -16.52761665 71.14995182 -17.875 75.5 C-18.205 76.60021484 -18.535 77.70042969 -18.875 78.83398438 C-19.205 79.89037109 -19.535 80.94675781 -19.875 82.03515625 C-20.16375 82.97883057 -20.4525 83.92250488 -20.75 84.89477539 C-22.04089944 87.81246585 -23.42654426 89.40829646 -25.875 91.4375 C-29.25 92.5 -29.25 92.5 -32.875 92.4375 C-37.18595721 90.08606879 -37.18595721 90.08606879 -38.875 87.4375 C-39.96569223 81.19337442 -38.28092455 75.38921989 -36.25 69.53515625 C-35.98364746 68.73138046 -35.71729492 67.92760468 -35.44287109 67.09947205 C-34.59944317 64.56191576 -33.73803658 62.03094648 -32.875 59.5 C-32.01568352 56.94295674 -31.16013382 54.38470155 -30.30712891 51.82554626 C-29.77742024 50.24035584 -29.24337975 48.65660501 -28.70458984 47.07447815 C-27.35530476 43.34001505 -27.35530476 43.34001505 -26.875 39.4375 C-27.39594238 39.96066299 -27.91688477 40.48382599 -28.45361328 41.02284241 C-33.39318945 45.98255857 -38.33524481 50.9397883 -43.28001404 55.89432621 C-45.82132359 58.44082694 -48.36170605 60.98823765 -50.89990234 63.5378418 C-53.35507864 66.00398205 -55.81277792 68.46758301 -58.27215576 70.929533 C-59.65401905 72.31410956 -61.03334075 73.70122123 -62.41259766 75.08839417 C-63.27288574 75.94875778 -64.13317383 76.8091214 -65.01953125 77.69555664 C-65.76565674 78.44390274 -66.51178223 79.19224884 -67.28051758 79.96327209 C-69.32043069 81.90863503 -71.38454883 83.74912182 -73.52148438 85.58299255 C-78.71490746 90.09832245 -83.53639162 94.97442849 -88.38671875 99.8515625 C-89.41901598 100.88578305 -90.45154419 101.9197731 -91.48428345 102.95355225 C-93.69332934 105.16573929 -95.90081692 107.37946516 -98.10708618 109.59442139 C-101.60205139 113.10300486 -105.10091341 116.60768524 -108.6003418 120.11181641 C-116.02820602 127.55074136 -123.45182661 134.99389459 -130.875 142.4375 C-138.89125699 150.47582145 -146.90825638 158.51339412 -154.93016148 166.54607964 C-158.40248058 170.02335458 -161.87235307 173.50304646 -165.34031677 176.98466492 C-167.504597 179.15645006 -169.67098806 181.32612041 -171.83793259 183.49524689 C-172.83525887 184.49443134 -173.83172751 185.49447278 -174.82722855 186.49547577 C-179.68708546 191.38132472 -184.58941884 196.11581389 -189.81672668 200.60507202 C-194.18780347 204.49652965 -198.26134318 208.70338672 -202.38671875 212.8515625 C-203.41901598 213.88578305 -204.45154419 214.9197731 -205.48428345 215.95355225 C-207.69332934 218.16573929 -209.90081692 220.37946516 -212.10708618 222.59442139 C-215.60205139 226.10300486 -219.10091341 229.60768524 -222.6003418 233.11181641 C-230.02820602 240.55074136 -237.45182661 247.99389459 -244.875 255.4375 C-252.89125699 263.47582145 -260.90825638 271.51339412 -268.93016148 279.54607964 C-272.40248058 283.02335458 -275.87235307 286.50304646 -279.34031677 289.98466492 C-281.504597 292.15645006 -283.67098806 294.32612041 -285.83793259 296.49524689 C-286.83525887 297.49443134 -287.83172751 298.49447278 -288.82722855 299.49547577 C-293.76182946 304.45646848 -298.73833583 309.27755823 -304.04801178 313.83537865 C-307.02972276 316.45009876 -309.80832835 319.25572041 -312.59472656 322.07543945 C-313.21369812 322.69747757 -313.83266968 323.31951569 -314.47039795 323.96040344 C-315.79841202 325.29550817 -317.12529138 326.6317424 -318.45111847 327.96901894 C-320.55038155 330.08582831 -322.65330313 332.19894053 -324.75726318 334.31108093 C-330.73311578 340.31126329 -336.7031706 346.31719052 -342.66894531 352.32739258 C-346.33084342 356.0160509 -349.99758044 359.69984106 -353.66735077 363.38066673 C-355.06150383 364.78102575 -356.45375675 366.18327917 -357.84406281 367.58745766 C-359.78246455 369.54504888 -361.72692417 371.49642677 -363.67285156 373.4465332 C-364.24434937 374.0267926 -364.81584717 374.607052 -365.40466309 375.20489502 C-370.48933994 380.27711745 -370.48933994 380.27711745 -373.875 381.4375 C-378.44004243 381.42695718 -380.36603926 380.87204351 -383.8671875 377.8828125 C-384.84602514 376.79184072 -385.80633551 375.68403461 -386.75 374.5625 C-387.2661084 373.97678223 -387.7822168 373.39106445 -388.31396484 372.78759766 C-392.21326082 368.32798167 -395.95561621 363.73601049 -399.6640625 359.1171875 C-401.9843495 356.30496685 -404.40571134 353.61952737 -406.875 350.9375 C-410.96851091 346.49022888 -414.79942499 341.89032537 -418.59375 337.1875 C-420.94218968 334.35650422 -423.38409902 331.64366402 -425.875 328.9375 C-429.96851091 324.49022888 -433.79942499 319.89032537 -437.59375 315.1875 C-439.94218968 312.35650422 -442.38409902 309.64366402 -444.875 306.9375 C-448.96851091 302.49022888 -452.79942499 297.89032537 -456.59375 293.1875 C-458.94218968 290.35650422 -461.38409902 287.64366402 -463.875 284.9375 C-467.96851091 280.49022888 -471.79942499 275.89032537 -475.59375 271.1875 C-477.94218968 268.35650422 -480.38409902 265.64366402 -482.875 262.9375 C-486.96728075 258.49156536 -490.79743114 253.8934628 -494.58984375 249.19140625 C-497.74353019 245.39080977 -501.09496706 241.78708785 -504.4453125 238.16015625 C-507.5433539 234.68855681 -510.37966132 231.04719671 -513.18359375 227.3359375 C-514.82357894 225.1779909 -514.82357894 225.1779909 -517.875 224.4375 C-518.12422683 225.01162754 -518.37345366 225.58575508 -518.63023281 226.17728043 C-520.05808934 228.76994941 -521.69737526 230.50871513 -523.79127502 232.60101318 C-524.60875214 233.42268478 -525.42622925 234.24435638 -526.26847839 235.09092712 C-527.61586845 236.42988792 -527.61586845 236.42988792 -528.99047852 237.79589844 C-529.94522634 238.75171952 -530.89954096 239.70797347 -531.85345459 240.66462708 C-534.44173166 243.25774701 -537.03620808 245.84458134 -539.63197827 248.43019772 C-542.34541591 251.1348511 -545.05357946 253.84477588 -547.76243591 256.55401611 C-552.30949386 261.10013794 -556.86040661 265.64237156 -561.41381836 270.18212891 C-566.68518255 275.43774453 -571.95127854 280.69859182 -577.2144075 285.9624536 C-582.27261937 291.02127473 -587.33367718 296.07723798 -592.39634514 301.13159943 C-594.55381635 303.2855318 -596.71042866 305.44031885 -598.86639595 307.59575653 C-601.40108993 310.12944963 -603.93830579 312.6605899 -606.47753906 315.18973351 C-607.85903339 316.56689087 -609.23806974 317.94651255 -610.61705017 319.32618713 C-611.43170746 320.13657944 -612.24636475 320.94697174 -613.08570862 321.78192139 C-613.79750054 322.49203747 -614.50929247 323.20215355 -615.24265385 323.9337883 C-616.875 325.4375 -616.875 325.4375 -617.875 325.4375 C-619.68845666 314.4024464 -620.9688689 302.91833249 -614.17590332 293.40063477 C-609.39466001 287.68479266 -604.06443812 282.55670563 -598.62153339 277.48192787 C-595.89684485 274.91457196 -593.24694817 272.27199036 -590.58734131 269.63757324 C-585.55739726 264.67759145 -580.46431621 259.78826257 -575.34443831 254.92135954 C-569.52340469 249.38069973 -563.78401538 243.75837287 -558.04717302 238.13080692 C-549.12938984 229.38949335 -540.17195444 220.68946222 -531.14160156 212.06445312 C-530.25831177 211.21481995 -529.37502197 210.36518677 -528.46496582 209.48980713 C-527.65170837 208.71687317 -526.83845093 207.94393921 -526.00054932 207.14758301 C-525.29629948 206.47525887 -524.59204964 205.80293472 -523.86645889 205.11023712 C-520.66931113 202.42477484 -518.73619615 201.44352235 -514.5234375 201.4140625 C-509.69871006 202.7674657 -507.68367773 205.08293754 -504.5 208.8125 C-503.93764648 209.44446289 -503.37529297 210.07642578 -502.79589844 210.72753906 C-498.73064989 215.33141563 -494.82430558 220.06646895 -490.984375 224.859375 C-488.85514854 227.4617629 -486.64050643 229.95325502 -484.375 232.4375 C-481.27944804 235.83348682 -478.32348793 239.29921531 -475.4375 242.875 C-471.57674863 247.648903 -467.50062925 252.17138428 -463.34375 256.6875 C-460.14618704 260.24934229 -457.16111657 263.96315833 -454.15625 267.6875 C-451.80781032 270.51849578 -449.36590098 273.23133598 -446.875 275.9375 C-442.78148909 280.38477112 -438.95057501 284.98467463 -435.15625 289.6875 C-432.80781032 292.51849578 -430.36590098 295.23133598 -427.875 297.9375 C-423.76121091 302.4073512 -419.90412703 307.02794893 -416.08984375 311.75390625 C-413.91867173 314.38458557 -411.67258643 316.91692424 -409.375 319.4375 C-406.27944804 322.83348682 -403.32348793 326.29921531 -400.4375 329.875 C-396.58710082 334.63610229 -392.5279387 339.15046955 -388.37109375 343.64453125 C-384.98921284 347.428639 -381.88336047 351.397613 -378.78515625 355.41796875 C-378.15480469 356.08441406 -377.52445313 356.75085938 -376.875 357.4375 C-373.94751328 357.7409335 -373.94751328 357.7409335 -372.32566547 356.25451565 C-371.77099692 355.6957829 -371.21632837 355.13705015 -370.64485168 354.56138611 C-370.00439911 353.92361237 -369.36394653 353.28583862 -368.7040863 352.6287384 C-368.00743362 351.91972885 -367.31078094 351.2107193 -366.59301758 350.48022461 C-365.85440491 349.74044373 -365.11579224 349.00066284 -364.35479736 348.23846436 C-361.90268713 345.779139 -359.46126653 343.30946656 -357.01953125 340.83984375 C-355.31735266 339.12952956 -353.61443611 337.41994954 -351.91081238 335.71107483 C-347.41442264 331.1975244 -342.92665543 326.67550042 -338.44104004 322.15124512 C-331.28101673 314.93218185 -324.10851977 307.72551901 -316.9352169 300.51965523 C-314.43545761 298.00599766 -311.939596 295.48852135 -309.44429016 292.97044373 C-307.89760054 291.41372002 -306.35082652 289.85708015 -304.80395508 288.30053711 C-304.11742355 287.60569717 -303.43089203 286.91085724 -302.72355652 286.19496155 C-299.59810716 283.05537445 -296.44048672 280.02078205 -293.07658386 277.13710022 C-287.69448952 272.49021146 -282.73226048 267.41832793 -277.72070312 262.38085938 C-276.61944105 261.27767437 -275.5179483 260.17471959 -274.41624451 259.07197571 C-272.05823338 256.71082153 -269.70178047 254.34812737 -267.34654236 251.98420715 C-263.6163375 248.24039407 -259.88224463 244.50047489 -256.14758301 240.7611084 C-248.22041285 232.8228734 -240.2974839 224.88041155 -232.375 216.9375 C-223.81981713 208.3602581 -215.2638949 199.78376153 -206.70306921 191.21215105 C-202.99659115 187.50071416 -199.29255956 183.78685855 -195.59043121 180.07108307 C-193.28083579 177.75398783 -190.96913401 175.43900266 -188.65687752 173.12456322 C-187.59182467 172.05765066 -186.52763029 170.98988028 -185.46439934 169.92115211 C-180.4342687 164.86585201 -175.36525877 159.93071341 -169.94988251 155.28653717 C-165.35008954 151.1874192 -161.06481975 146.74743634 -156.72070312 142.38085938 C-155.61944105 141.27767437 -154.5179483 140.17471959 -153.41624451 139.07197571 C-151.05823338 136.71082153 -148.70178047 134.34812737 -146.34654236 131.98420715 C-142.6163375 128.24039407 -138.88224463 124.50047489 -135.14758301 120.7611084 C-127.22041285 112.8228734 -119.2974839 104.88041155 -111.375 96.9375 C-102.81981713 88.3602581 -94.2638949 79.78376153 -85.70306921 71.21215105 C-81.99659115 67.50071416 -78.29255956 63.78685855 -74.59043121 60.07108307 C-72.28083579 57.75398783 -69.96913401 55.43900266 -67.65687752 53.12456322 C-66.59182467 52.05765066 -65.52763029 50.98988028 -64.46439934 49.92115211 C-59.28777255 44.71862283 -54.08836746 39.59467042 -48.49797821 34.83219147 C-46.20787183 32.86420952 -44.06817222 30.7631614 -41.9375 28.625 C-41.18597656 27.87605469 -40.43445313 27.12710937 -39.66015625 26.35546875 C-37.81638867 24.55529562 -37.81638867 24.55529562 -36.875 22.4375 C-38.13570312 22.67984375 -39.39640625 22.9221875 -40.6953125 23.171875 C-45.39785644 24.07381975 -50.10219888 24.96606227 -54.80712891 25.85546875 C-56.83855269 26.24086699 -58.86948747 26.62885255 -60.89990234 27.01953125 C-63.82783548 27.58242963 -66.75743342 28.13582849 -69.6875 28.6875 C-71.03642334 28.94998535 -71.03642334 28.94998535 -72.41259766 29.21777344 C-77.65700589 30.19416261 -82.53784692 30.78144986 -87.875 30.4375 C-90.30619623 28.56734906 -91.51569173 27.15611655 -92.875 24.4375 C-93.2709638 20.87382578 -93.19871474 18.98570977 -91.35839844 15.86914062 C-88.1561754 12.7336568 -85.0934432 12.11256242 -80.828125 11.34375 C-79.63996185 11.105495 -79.63996185 11.105495 -78.42779541 10.86242676 C-75.91388648 10.36526506 -73.39572614 9.89873614 -70.875 9.4375 C-69.28445524 9.13698307 -67.69395956 8.83620632 -66.10351562 8.53515625 C-61.28322625 7.63524844 -56.45494086 6.78379864 -51.625 5.9375 C-49.0514256 5.48294843 -46.47803612 5.02736056 -43.90466309 4.57167053 C-42.22188623 4.27377884 -40.53902618 3.97635661 -38.8560791 3.6794281 C-34.13335223 2.84465502 -29.41602611 1.98663716 -24.703125 1.09765625 C-23.69411133 0.90816406 -22.68509766 0.71867187 -21.64550781 0.5234375 C-19.87307631 0.18856852 -18.10149289 -0.15084131 -16.33105469 -0.49609375 C-4.87055119 -2.64703869 -4.87055119 -2.64703869 0 0 Z " fill="#0330FF" transform="translate(704.875,400.5625)"/>
<path d="M0 0 C39.27 0 78.54 0 119 0 C119 57.09 119 114.18 119 173 C115.15004188 169.92003351 112.70592039 167.63011368 109.75 163.875 C106.76360694 160.14695303 103.722137 156.52632476 100.5 153 C96.58108748 148.70008209 92.90829131 144.24080453 89.25 139.71875 C86.36224923 136.22938448 83.32027206 132.89771033 80.265625 129.5546875 C77.08150764 125.96432069 74.10834037 122.21541017 71.140625 118.4453125 C67.45100006 114.23052197 63.36607104 110.6046138 57.73828125 109.59375 C49.48797043 109.27489741 44.79077091 112.64054025 38.74804688 117.99572754 C36.40451512 120.23450975 34.11746054 122.51849773 31.84375 124.828125 C30.60123474 126.07345001 30.60123474 126.07345001 29.33361816 127.34393311 C27.59908322 129.08514722 25.86812763 130.82993372 24.140625 132.578125 C21.48702073 135.26313287 18.8226613 137.93709055 16.15625 140.609375 C14.46812042 142.30666572 12.78059824 144.00456082 11.09375 145.703125 C10.29594116 146.50518372 9.49813232 147.30724243 8.67614746 148.13360596 C7.94448364 148.87487732 7.21281982 149.61614868 6.45898438 150.37988281 C5.81328491 151.03241028 5.16758545 151.68493774 4.50231934 152.35723877 C2.91442046 153.9431656 2.91442046 153.9431656 2 156 C1.34 156 0.68 156 0 156 C0 104.52 0 53.04 0 0 Z " fill="#012EFF" transform="translate(134,468)"/>
<path d="M0 0 C38.94 0 77.88 0 118 0 C118.5775 12.9525 119.155 25.905 119.75 39.25 C120.13236816 45.28909668 120.13236816 45.28909668 120.52246094 51.45019531 C121.09706977 67.28025581 121.22500049 80.41134117 110.11720657 92.66717148 C104.37481623 98.58531015 98.06723377 103.81169115 91.52816772 108.81869316 C84.49770387 114.2533944 78.28445858 120.58110117 72.03125 126.87109375 C70.64987854 128.25458763 70.64987854 128.25458763 69.24060059 129.66603088 C66.81852446 132.09188477 64.39946921 134.52072852 61.9810791 136.95025635 C59.50226163 139.43939116 57.02053203 141.92561895 54.5390625 144.41210938 C49.68989076 149.27193458 44.84391137 154.13493178 40 159 C36.44904223 157.34004647 34.4145061 155.52471095 31.8125 152.5625 C31.02230469 151.66402344 30.23210937 150.76554688 29.41796875 149.83984375 C26.34471228 146.23038098 23.3696287 142.54667329 20.390625 138.859375 C16.99936161 134.803158 13.40073862 130.96234455 9.7734375 127.1171875 C8.84755646 126.07937398 7.923203 125.04019653 7 124 C6.41452865 123.38418344 5.82905729 122.76836687 5.22584438 122.1338892 C-0.16779143 115.9950126 -0.98801827 111.44317695 -0.79467773 103.42163086 C-0.79552148 102.28064469 -0.79636522 101.13965853 -0.79723454 99.96409702 C-0.79203911 96.29668302 -0.7388792 92.63180789 -0.68359375 88.96484375 C-0.67329242 86.69048256 -0.66615692 84.41610476 -0.66223145 82.14172363 C-0.62563921 73.74006148 -0.52790982 65.33875538 -0.4375 56.9375 C-0.293125 38.148125 -0.14875 19.35875 0 0 Z " fill="#002DFF" transform="translate(291,571)"/>
<path d="M0 0 C11.22 0 22.44 0 34 0 C40.74829932 11.24716553 40.74829932 11.24716553 43.5234375 16.30078125 C44.14371826 17.42790527 44.76399902 18.5550293 45.40307617 19.71630859 C45.72392181 20.30144226 46.04476746 20.88657593 46.37533569 21.48944092 C47.40639847 23.36976048 48.43986421 25.24874261 49.47387695 27.12744141 C50.92540472 29.76528013 52.37600241 32.40362646 53.82568359 35.04248047 C56.95033277 40.73021076 60.07822437 46.4161477 63.21002197 52.09994507 C64.13445123 53.77866589 65.05726519 55.45827592 65.97998047 57.13793945 C72.22687245 68.48009466 78.62698186 79.72466021 85 91 C85.33 60.97 85.66 30.94 86 0 C97.22 0 108.44 0 120 0 C120 50.16 120 100.32 120 152 C108.78 152 97.56 152 86 152 C79.9765625 141.08251953 73.953125 130.16503906 67.9296875 119.24755859 C67.59902786 118.6482402 67.26836823 118.04892181 66.9276886 117.43144226 C66.26767741 116.23516753 65.60767374 115.03888864 64.94767761 113.84260559 C63.30945213 110.87324426 61.6710954 107.9039555 60.0324707 104.93481445 C56.90826309 99.27351643 53.78539439 93.61149069 50.66671753 87.94714355 C49.19519517 85.27464188 47.72299027 82.60251648 46.25073242 79.93041992 C45.54954454 78.65733323 44.84869062 77.38406253 44.14819336 76.1105957 C43.17646639 74.34409712 42.2034927 72.57828451 41.23046875 70.8125 C40.67770264 69.80832031 40.12493652 68.80414062 39.55541992 67.76953125 C38.08532332 65.15192398 36.54460605 62.57434341 35 60 C34.67 90.36 34.34 120.72 34 152 C22.78 152 11.56 152 0 152 C0 101.84 0 51.68 0 0 Z " fill="#020202" transform="translate(1423,580)"/>
<path d="M0 0 C11.22 0 22.44 0 34 0 C40.74829932 11.24716553 40.74829932 11.24716553 43.5234375 16.30078125 C44.14371826 17.42790527 44.76399902 18.5550293 45.40307617 19.71630859 C45.72392181 20.30144226 46.04476746 20.88657593 46.37533569 21.48944092 C47.40639847 23.36976048 48.43986421 25.24874261 49.47387695 27.12744141 C50.92540472 29.76528013 52.37600241 32.40362646 53.82568359 35.04248047 C56.95033277 40.73021076 60.07822437 46.4161477 63.21002197 52.09994507 C64.13445123 53.77866589 65.05726519 55.45827592 65.97998047 57.13793945 C72.22687245 68.48009466 78.62698186 79.72466021 85 91 C85.33 60.97 85.66 30.94 86 0 C97.22 0 108.44 0 120 0 C120 50.16 120 100.32 120 152 C108.78 152 97.56 152 86 152 C79.9765625 141.08251953 73.953125 130.16503906 67.9296875 119.24755859 C67.59902786 118.6482402 67.26836823 118.04892181 66.9276886 117.43144226 C66.26767741 116.23516753 65.60767374 115.03888864 64.94767761 113.84260559 C63.30945213 110.87324426 61.6710954 107.9039555 60.0324707 104.93481445 C56.90826309 99.27351643 53.78539439 93.61149069 50.66671753 87.94714355 C49.19519517 85.27464188 47.72299027 82.60251648 46.25073242 79.93041992 C45.54954454 78.65733323 44.84869062 77.38406253 44.14819336 76.1105957 C43.17646639 74.34409712 42.2034927 72.57828451 41.23046875 70.8125 C40.67770264 69.80832031 40.12493652 68.80414063 39.55541992 67.76953125 C38.08532332 65.15192398 36.54460605 62.57434341 35 60 C34.67 90.36 34.34 120.72 34 152 C22.78 152 11.56 152 0 152 C0 101.84 0 51.68 0 0 Z " fill="#020202" transform="translate(1254,340)"/>
<path d="M0 0 C76.67975293 0 76.67975293 0 91.7421875 14.45703125 C101.73578113 25.71279155 104.94942742 38.96810695 104.41015625 53.6796875 C103.49142818 66.53036038 97.57964977 77.90583217 88.3125 86.75 C83.65052613 90.60597446 76.22046744 96 70 96 C75.49082011 103.17022495 81.01430777 110.31231032 86.60400391 117.40576172 C91.09265358 123.1062059 95.54068189 128.83792338 99.98779297 134.57080078 C103.85038295 139.54314465 107.75816313 144.47181052 111.7421875 149.34765625 C113 151 113 151 113 152 C99.47682856 154.64631129 83.05051959 157.76438556 70 152 C57.8743009 143.01428497 50.42788173 127.2197912 43.66088867 114.08251953 C40.97193044 108.94638479 37.9827612 103.97126866 35 99 C34.67 116.49 34.34 133.98 34 152 C22.78 152 11.56 152 0 152 C0 101.84 0 51.68 0 0 Z " fill="#020202" transform="translate(1743,580)"/>
<path d="M0 0 C11.22 0 22.44 0 34 0 C36.041875 3.815625 38.08375 7.63125 40.1875 11.5625 C44.86051833 20.26660547 49.60685199 28.917285 54.5 37.5 C59.74643445 46.70534123 64.81737374 55.99554836 69.8046875 65.34375 C74.76444114 74.62677557 79.88549099 83.79388379 85 93 C85.33 62.31 85.66 31.62 86 0 C96.89 0 107.78 0 119 0 C119 50.16 119 100.32 119 152 C107.78 152 96.56 152 85 152 C82.89625 148.08125 80.7925 144.1625 78.625 140.125 C73.29541522 130.21754099 67.90462809 120.34865927 62.41357422 110.52978516 C59.47674397 105.27392418 56.55131437 100.01172048 53.625 94.75 C53.04886963 93.71625244 52.47273926 92.68250488 51.87915039 91.61743164 C45.85115661 80.78095168 39.93869266 69.8876032 34 59 C33.67 89.69 33.34 120.38 33 152 C22.11 152 11.22 152 0 152 C0 101.84 0 51.68 0 0 Z " fill="#000000" transform="translate(1248,580)"/>
<path d="M0 0 C11.22 0 22.44 0 34 0 C43.03515625 16.3762207 43.03515625 16.3762207 52.0703125 32.75244141 C52.40097214 33.3517598 52.73163177 33.95107819 53.0723114 34.56855774 C53.73232259 35.76483247 54.39232626 36.96111136 55.05232239 38.15739441 C56.69054787 41.12675574 58.3289046 44.0960445 59.9675293 47.06518555 C63.09173691 52.72648357 66.21460561 58.38850931 69.33328247 64.05285645 C70.80480483 66.72535812 72.27700973 69.39748352 73.74926758 72.06958008 C74.45045546 73.34266677 75.15130938 74.61593747 75.85180664 75.8894043 C76.82353361 77.65590288 77.7965073 79.42171549 78.76953125 81.1875 C79.32229736 82.19167969 79.87506348 83.19585937 80.44458008 84.23046875 C81.91467668 86.84807602 83.45539395 89.42565659 85 92 C85.33 61.64 85.66 31.28 86 0 C96.89 0 107.78 0 119 0 C119 50.16 119 100.32 119 152 C108.11 152 97.22 152 86 152 C79.25426406 140.75710676 79.25426406 140.75710676 76.44140625 135.62890625 C75.81613037 134.49179199 75.19085449 133.35467773 74.54663086 132.18310547 C74.22371063 131.59382263 73.90079041 131.00453979 73.56808472 130.3973999 C71.81237674 127.19374302 70.05009822 123.99369904 68.2890625 120.79296875 C67.92995285 120.13983704 67.5708432 119.48670532 67.20085144 118.81378174 C61.17316367 107.8541023 55.07870082 96.93144518 49 86 C44.05 77.09 39.1 68.18 34 59 C33.67 89.69 33.34 120.38 33 152 C22.11 152 11.22 152 0 152 C0 101.84 0 51.68 0 0 Z " fill="#000000" transform="translate(954,340)"/>
<path d="M0 0 C9.57 0 19.14 0 29 0 C33.49981274 8.99962548 33.49981274 8.99962548 34.77661133 12.17651367 C35.06887604 12.89890732 35.36114075 13.62130096 35.66226196 14.36558533 C35.96578583 15.12537186 36.26930969 15.88515839 36.58203125 16.66796875 C36.91246429 17.487173 37.24289734 18.30637726 37.58334351 19.15040588 C38.66273463 21.82823797 39.73756032 24.50787831 40.8125 27.1875 C41.57751363 29.087062 42.34290035 30.98647378 43.10864258 32.88574219 C44.66787184 36.75384546 46.22565074 40.62252743 47.78222656 44.49169922 C50.61423735 51.52881232 53.46065562 58.56005304 56.3114624 65.58956909 C57.19397722 67.76597373 58.07577415 69.9426683 58.95751953 72.11938477 C62.8521092 81.72912538 66.76647954 91.33070234 70.6875 100.9296875 C71.68858904 103.38182324 72.68964688 105.83397172 73.69067383 108.28613281 C75.65433039 113.09633276 77.62074039 117.90539488 79.58862305 122.71386719 C80.50059362 124.94722261 81.41246336 127.18061922 82.32421875 129.4140625 C82.73716187 130.42097137 83.15010498 131.42788025 83.57556152 132.46530151 C83.96787964 133.42759674 84.36019775 134.38989197 84.7644043 135.38134766 C85.10110641 136.20462555 85.43780853 137.02790344 85.78471375 137.87612915 C87.60429202 142.55332148 89.28490623 147.28349213 91 152 C79.12 152 67.24 152 55 152 C49.18371637 138.04091928 49.18371637 138.04091928 46.6875 130.875 C46.42388672 130.13507813 46.16027344 129.39515625 45.88867188 128.6328125 C44 123.25622971 44 123.25622971 44 121 C15.29 121.495 15.29 121.495 -14 122 C-17.63 131.9 -21.26 141.8 -25 152 C-36.88 152 -48.76 152 -61 152 C-57.62487541 141.87462623 -57.62487541 141.87462623 -56.2644043 138.52075195 C-55.95436966 137.75260162 -55.64433502 136.98445129 -55.3249054 136.19302368 C-54.9946788 135.38295868 -54.66445221 134.57289368 -54.32421875 133.73828125 C-53.78809212 132.413694 -53.78809212 132.413694 -53.24113464 131.06234741 C-52.05930549 128.1446223 -50.87344773 125.22855322 -49.6875 122.3125 C-48.84436561 120.23356019 -48.0014339 118.15453816 -47.15869141 116.07543945 C-39.8298934 98.004807 -32.46700708 79.94797451 -25.10375977 61.89135742 C-16.69807158 41.27615441 -8.34069858 20.6415697 0 0 Z " fill="#010101" transform="translate(1113,580)"/>
<path d="M0 0 C9.57 0 19.14 0 29 0 C33.49981274 8.99962548 33.49981274 8.99962548 34.77661133 12.17651367 C35.06887604 12.89890732 35.36114075 13.62130096 35.66226196 14.36558533 C35.96578583 15.12537186 36.26930969 15.88515839 36.58203125 16.66796875 C36.91246429 17.487173 37.24289734 18.30637726 37.58334351 19.15040588 C38.66273463 21.82823797 39.73756032 24.50787831 40.8125 27.1875 C41.57751363 29.087062 42.34290035 30.98647378 43.10864258 32.88574219 C44.66787184 36.75384546 46.22565074 40.62252743 47.78222656 44.49169922 C50.61423735 51.52881232 53.46065562 58.56005304 56.3114624 65.58956909 C57.19397722 67.76597373 58.07577415 69.9426683 58.95751953 72.11938477 C62.8521092 81.72912538 66.76647954 91.33070234 70.6875 100.9296875 C71.68858904 103.38182324 72.68964688 105.83397172 73.69067383 108.28613281 C75.65433039 113.09633276 77.62074039 117.90539488 79.58862305 122.71386719 C80.50059362 124.94722261 81.41246336 127.18061922 82.32421875 129.4140625 C82.73716187 130.42097137 83.15010498 131.42788025 83.57556152 132.46530151 C83.96787964 133.42759674 84.36019775 134.38989197 84.7644043 135.38134766 C85.10110641 136.20462555 85.43780853 137.02790344 85.78471375 137.87612915 C87.60429202 142.55332148 89.28490623 147.28349213 91 152 C79.12 152 67.24 152 55 152 C49.18371637 138.04091928 49.18371637 138.04091928 46.6875 130.875 C46.42388672 130.13507813 46.16027344 129.39515625 45.88867188 128.6328125 C44 123.25622971 44 123.25622971 44 121 C15.29 121.495 15.29 121.495 -14 122 C-17.63 131.9 -21.26 141.8 -25 152 C-36.88 152 -48.76 152 -61 152 C-57.62487541 141.87462623 -57.62487541 141.87462623 -56.2644043 138.52075195 C-55.95436966 137.75260162 -55.64433502 136.98445129 -55.3249054 136.19302368 C-54.9946788 135.38295868 -54.66445221 134.57289368 -54.32421875 133.73828125 C-53.78809212 132.413694 -53.78809212 132.413694 -53.24113464 131.06234741 C-52.05930549 128.1446223 -50.87344773 125.22855322 -49.6875 122.3125 C-48.84436561 120.23356019 -48.0014339 118.15453816 -47.15869141 116.07543945 C-39.8298934 98.004807 -32.46700708 79.94797451 -25.10375977 61.89135742 C-16.69807158 41.27615441 -8.34069858 20.6415697 0 0 Z " fill="#010101" transform="translate(1149,340)"/>
<path d="M0 0 C1.20970459 0.00523682 2.41940918 0.01047363 3.66577148 0.01586914 C4.97094727 0.0190918 6.27612305 0.02231445 7.62084961 0.02563477 C9.00952213 0.03399138 10.39819401 0.04245634 11.78686523 0.05102539 C13.17944179 0.05603873 14.57202005 0.06060193 15.96459961 0.06469727 C19.38456394 0.07653105 22.80444367 0.09301659 26.22436523 0.11352539 C26.87900757 1.73133911 26.87900757 1.73133911 27.546875 3.38183594 C32.40143015 15.37852437 37.25726588 27.37469409 42.1138916 39.37054443 C43.12509886 41.86832751 44.13617987 44.36616164 45.1472168 46.86401367 C53.314563 67.04071665 61.51321135 87.20461135 69.72436523 107.36352539 C70.19562836 108.52074097 70.66689148 109.67795654 71.1524353 110.87023926 C72.51978173 114.22753134 73.88766848 117.58460288 75.25561523 120.94165039 C75.68606644 121.99898376 76.11651764 123.05631714 76.56001282 124.14569092 C78.50275771 128.9131119 80.45371038 133.6765584 82.43530273 138.42797852 C82.76719604 139.22548523 83.09908936 140.02299194 83.44104004 140.84466553 C84.04767876 142.2994714 84.65725233 143.75305855 85.27038574 145.20513916 C87.22436523 149.89249107 87.22436523 149.89249107 87.22436523 152.11352539 C75.34436523 152.11352539 63.46436523 152.11352539 51.22436523 152.11352539 C45.77936523 137.26352539 45.77936523 137.26352539 40.22436523 122.11352539 C21.08436523 121.78352539 1.94436523 121.45352539 -17.77563477 121.11352539 C-18.76563477 124.41352539 -19.75563477 127.71352539 -20.77563477 131.11352539 C-21.35127852 132.808202 -21.9421069 134.49802784 -22.56469727 136.17602539 C-22.86633789 136.99200195 -23.16797852 137.80797852 -23.47875977 138.64868164 C-23.78297852 139.46208008 -24.08719727 140.27547852 -24.40063477 141.11352539 C-24.86856445 142.3800293 -24.86856445 142.3800293 -25.34594727 143.67211914 C-27.62564447 149.8135448 -27.62564447 149.8135448 -28.77563477 152.11352539 C-40.65563477 152.11352539 -52.53563477 152.11352539 -64.77563477 152.11352539 C-61.28881176 142.81533072 -57.81449433 133.56820545 -54.04516602 124.39086914 C-53.61693039 123.34252396 -53.18869476 122.29417877 -52.7474823 121.21406555 C-51.83490774 118.9805689 -50.9213415 116.7474772 -50.00683594 114.51477051 C-47.55664574 108.53265497 -45.11379036 102.54754405 -42.67016602 96.56274414 C-42.17445099 95.34918243 -41.67873596 94.13562073 -41.16799927 92.88528442 C-36.7369162 82.03219994 -32.3423804 71.16455476 -27.95730591 60.29281616 C-22.19702062 46.01341987 -16.42461289 31.73910044 -10.5769043 17.49523926 C-9.96540803 16.00542224 -9.35471447 14.51527545 -8.74487305 13.02478027 C-7.92178902 11.01421885 -7.0954016 9.00505235 -6.26782227 6.99633789 C-5.80746582 5.87630371 -5.34710937 4.75626953 -4.87280273 3.60229492 C-3.3450544 0.13681505 -3.3450544 0.13681505 0 0 Z " fill="#010101" transform="translate(1679.775634765625,339.886474609375)"/>
<path d="M0 0 C75.19512195 0 75.19512195 0 89.75 13.5625 C101.90756677 26.73319733 103.87666028 39.97024597 103.1953125 57.31054688 C102.52365225 66.55930857 98.47448779 73.73577582 93 81 C92.4225 81.86625 91.845 82.7325 91.25 83.625 C82.71300788 92.63626946 71.11701036 97.68167819 58.74853516 98.11352539 C57.03609619 98.10567017 57.03609619 98.10567017 55.2890625 98.09765625 C54.16709473 98.09515869 53.04512695 98.09266113 51.88916016 98.09008789 C49.77840088 98.07643188 49.77840088 98.07643188 47.625 98.0625 C40.880625 98.0315625 40.880625 98.0315625 34 98 C34 115.82 34 133.64 34 152 C22.78 152 11.56 152 0 152 C0 101.84 0 51.68 0 0 Z " fill="#010101" transform="translate(776,580)"/>
<path d="M0 0 C9.87336225 8.5110718 17.27714565 19.39751561 21.97265625 31.5625 C21.97265625 32.5525 21.97265625 33.5425 21.97265625 34.5625 C16.83181774 34.81081278 11.69450401 34.99162974 6.54907227 35.11181641 C4.80170884 35.16193045 3.05476121 35.23004898 1.30883789 35.31689453 C-13.26766648 36.023483 -13.26766648 36.023483 -17.61914062 32.41064453 C-19.4375 29.734375 -19.4375 29.734375 -20.73461914 27.05761719 C-24.13911654 20.48651928 -33.31654099 16.95046813 -40.02734375 14.5625 C-51.51096724 11.69159413 -62.63917512 13.01043588 -73.02734375 18.5625 C-83.81697586 25.38735846 -90.90883338 35.30671477 -94.21484375 47.625 C-97.06822051 61.98943514 -94.40192405 75.25545339 -86.453125 87.484375 C-85.98261719 88.17015625 -85.51210937 88.8559375 -85.02734375 89.5625 C-84.42921875 90.47 -83.83109375 91.3775 -83.21484375 92.3125 C-75.15528744 100.60232935 -64.01410853 105.62922463 -52.52734375 105.875 C-40.78797034 105.76528623 -30.37719521 101.86369359 -21.98828125 93.5390625 C-19.05021922 90.28663992 -17.00683103 87.52147457 -15.02734375 83.5625 C-2.48734375 83.5625 10.05265625 83.5625 22.97265625 83.5625 C16.13216764 104.08396584 2.9281978 120.20764698 -16.41137695 130.02270508 C-33.94948591 138.39374688 -56.03711307 141.25017478 -74.83984375 134.875 C-95.64405413 127.45807544 -112.56531237 114.09338853 -122.32373047 93.97119141 C-131.02416262 74.75266295 -133.50246602 53.59860359 -126.02734375 33.5625 C-117.4561478 12.60958795 -103.47711127 -3.302555 -82.734375 -12.97265625 C-54.38217855 -24.59129828 -23.47527178 -19.15434235 0 0 Z " fill="#020202" transform="translate(1525.02734375,356.4375)"/>
<path d="M0 0 C29.04 0 58.08 0 88 0 C88 9.9 88 19.8 88 30 C69.85 30 51.7 30 33 30 C33 40.23 33 50.46 33 61 C50.49 61 67.98 61 86 61 C86 70.9 86 80.8 86 91 C68.51 91 51.02 91 33 91 C33 101.23 33 111.46 33 122 C51.15 122 69.3 122 88 122 C88 131.9 88 141.8 88 152 C58.96 152 29.92 152 0 152 C0 101.84 0 51.68 0 0 Z " fill="#000000" transform="translate(1599,580)"/>
<path d="M0 0 C29.04 0 58.08 0 88 0 C88 9.9 88 19.8 88 30 C69.85 30 51.7 30 33 30 C33 40.23 33 50.46 33 61 C50.16 61 67.32 61 85 61 C85 70.9 85 80.8 85 91 C67.84 91 50.68 91 33 91 C33 111.13 33 131.26 33 152 C22.11 152 11.22 152 0 152 C0 101.84 0 51.68 0 0 Z " fill="#000000" transform="translate(781,340)"/>
<path d="M0 0 C11.22 0 22.44 0 34 0 C34 40.26 34 80.52 34 122 C51.82 122 69.64 122 88 122 C88 131.9 88 141.8 88 152 C58.96 152 29.92 152 0 152 C0 101.84 0 51.68 0 0 Z " fill="#020202" transform="translate(925,580)"/>
<path d="M0 0 C11.22 0 22.44 0 34 0 C34 40.26 34 80.52 34 122 C51.82 122 69.64 122 88 122 C88 131.9 88 141.8 88 152 C58.96 152 29.92 152 0 152 C0 101.84 0 51.68 0 0 Z " fill="#020202" transform="translate(1781,340)"/>
<path d="M0 0 C11.22 0 22.44 0 34 0 C34 50.16 34 100.32 34 152 C22.78 152 11.56 152 0 152 C0 101.84 0 51.68 0 0 Z " fill="#030303" transform="translate(893,340)"/>
<path d="M0 0 C10.89 0 21.78 0 33 0 C33 50.16 33 100.32 33 152 C22.11 152 11.22 152 0 152 C0 101.84 0 51.68 0 0 Z " fill="#000000" transform="translate(1567,340)"/>
<path d="M0 0 C25.45614035 0 25.45614035 0 32.0234375 5.78125 C32.46945312 6.3484375 32.91546875 6.915625 33.375 7.5 C33.83648438 8.0671875 34.29796875 8.634375 34.7734375 9.21875 C39.0580205 15.44094697 38.53973503 21.62081019 38 29 C36.84229419 34.23680989 33.74955554 38.25044446 30 42 C23.76936642 45.53540624 18.09893743 45.35651809 11.0625 45.1875 C7.411875 45.125625 3.76125 45.06375 0 45 C0 30.15 0 15.3 0 0 Z " fill="#F9F9F9" transform="translate(809,606)"/>
<path d="M0 0 C22 0 22 0 31 5 C36.62033702 11.69657176 38.49809667 17.2321175 38.3046875 26 C37.53392881 33.58900865 33.6334184 37.82212758 28 42.65234375 C20.33015842 47.82049872 7.20491837 45 0 45 C0 30.15 0 15.3 0 0 Z " fill="#FCFCFC" transform="translate(1777,606)"/>
<path d="M0 0 C2.59650073 1.29825037 2.62184764 2.19983027 3.55639648 4.90209961 C3.9921122 6.14490944 3.9921122 6.14490944 4.43663025 7.41282654 C4.7450032 8.31686722 5.05337616 9.2209079 5.37109375 10.15234375 C5.69408951 11.081642 6.01708527 12.01094025 6.34986877 12.96839905 C7.03492877 14.94365004 7.71646041 16.92012766 8.39477539 18.89770508 C9.42324838 21.89595309 10.46154048 24.89064253 11.50195312 27.88476562 C12.16725279 29.80708891 12.8319837 31.72960916 13.49609375 33.65234375 C13.80244247 34.53816635 14.1087912 35.42398895 14.42442322 36.33665466 C14.86486717 37.62201866 14.86486717 37.62201866 15.31420898 38.93334961 C15.6948777 40.0413517 15.6948777 40.0413517 16.08323669 41.17173767 C17.46185359 45.42484227 18.7152791 49.717597 20 54 C7.46 54 -5.08 54 -18 54 C-17.34656922 50.07941532 -16.81253591 47.07188692 -15.54125977 43.45092773 C-15.10058922 42.1844767 -15.10058922 42.1844767 -14.65101624 40.8924408 C-14.33434494 39.99852127 -14.01767365 39.10460175 -13.69140625 38.18359375 C-13.36462387 37.24951187 -13.03784149 36.31542999 -12.70115662 35.3530426 C-11.65949432 32.37957362 -10.61095997 29.40857794 -9.5625 26.4375 C-8.86090489 24.43569516 -8.15972856 22.43374349 -7.45898438 20.43164062 C-6.78683001 18.51549458 -6.11431607 16.59947462 -5.44140625 14.68359375 C-5.12675919 13.78764999 -4.81211212 12.89170624 -4.4879303 11.96861267 C-3.06770993 7.94542164 -1.63341759 3.94306497 0 0 Z " fill="#F7F7F7" transform="translate(1127,620)"/>
<path d="M0 0 C2.59650073 1.29825037 2.62184764 2.19983027 3.55639648 4.90209961 C3.9921122 6.14490944 3.9921122 6.14490944 4.43663025 7.41282654 C4.7450032 8.31686722 5.05337616 9.2209079 5.37109375 10.15234375 C5.69408951 11.081642 6.01708527 12.01094025 6.34986877 12.96839905 C7.03492877 14.94365004 7.71646041 16.92012766 8.39477539 18.89770508 C9.42324838 21.89595309 10.46154048 24.89064253 11.50195312 27.88476562 C12.16725279 29.80708891 12.8319837 31.72960916 13.49609375 33.65234375 C13.80244247 34.53816635 14.1087912 35.42398895 14.42442322 36.33665466 C14.86486717 37.62201866 14.86486717 37.62201866 15.31420898 38.93334961 C15.6948777 40.0413517 15.6948777 40.0413517 16.08323669 41.17173767 C17.46185359 45.42484227 18.7152791 49.717597 20 54 C7.46 54 -5.08 54 -18 54 C-17.34656922 50.07941532 -16.81253591 47.07188692 -15.54125977 43.45092773 C-15.10058922 42.1844767 -15.10058922 42.1844767 -14.65101624 40.8924408 C-14.33434494 39.99852127 -14.01767365 39.10460175 -13.69140625 38.18359375 C-13.36462387 37.24951187 -13.03784149 36.31542999 -12.70115662 35.3530426 C-11.65949432 32.37957362 -10.61095997 29.40857794 -9.5625 26.4375 C-8.86090489 24.43569516 -8.15972856 22.43374349 -7.45898438 20.43164062 C-6.78683001 18.51549458 -6.11431607 16.59947462 -5.44140625 14.68359375 C-5.12675919 13.78764999 -4.81211212 12.89170624 -4.4879303 11.96861267 C-3.06770993 7.94542164 -1.63341759 3.94306497 0 0 Z " fill="#F7F7F7" transform="translate(1163,380)"/>
<path d="M0 0 C0.66 0 1.32 0 2 0 C2.196008 0.55266037 2.39201599 1.10532074 2.59396362 1.67472839 C4.63680089 7.4340505 6.68103439 13.19287564 8.72607422 18.95141602 C9.48880147 21.09972664 10.25117432 23.24816312 11.01318359 25.39672852 C12.10941597 28.48747496 13.20692794 31.57776445 14.3046875 34.66796875 C14.6443454 35.62648239 14.9840033 36.58499603 15.33395386 37.57255554 C15.81422531 38.92338982 15.81422531 38.92338982 16.30419922 40.30151367 C16.58399628 41.08983078 16.86379333 41.87814789 17.15206909 42.69035339 C17.75976175 44.34562421 18.41715012 45.98297492 19.10598755 47.6061554 C20 50 20 50 20 53 C7.46 53 -5.08 53 -18 53 C-17.31275466 48.87652796 -16.71207795 45.80347291 -15.32592773 42.00439453 C-14.98565048 41.06387238 -14.64537323 40.12335022 -14.29478455 39.15432739 C-13.92809158 38.15722748 -13.56139862 37.16012756 -13.18359375 36.1328125 C-12.80767593 35.09808807 -12.43175812 34.06336365 -12.04444885 32.99728394 C-10.84699337 29.70472832 -9.64235395 26.41485455 -8.4375 23.125 C-7.62257108 20.88819412 -6.80811256 18.6512168 -5.99414062 16.4140625 C-4.00154038 10.94071 -2.00304119 5.46953953 0 0 Z " fill="#F7F7F7" transform="translate(1690,381)"/>
</svg>
